<?xml version="1.0" encoding="UTF-8"?>
<svg width="34px" height="34px" viewBox="0 0 34 34" version="1.1" xmlns="http://www.w3.org/2000/svg" xmlns:xlink="http://www.w3.org/1999/xlink">
    <!-- Generator: sketchtool 46.2 (44496) - http://www.bohemiancoding.com/sketch -->
    <title>8554A178-2AC1-4E06-9139-9A8D7D7D482F</title>
    <desc>Created with sketchtool.</desc>
    <defs></defs>
    <g id="⚙️-CMS-Admin" stroke="none" stroke-width="1" fill="none" fill-rule="evenodd">
        <g id="Fulfill-/2.0-Order-review" transform="translate(-796.000000, -203.000000)" fill-rule="nonzero" fill="#FFFFFF">
            <g id="BODY" transform="translate(249.000000, 105.000000)">
                <g id="Overview" transform="translate(38.000000, 56.000000)">
                    <g id="laptop-1" transform="translate(509.000000, 42.000000)">
                        <path d="M9.59529233,18.1820896 L14.4244495,18.1820896 C14.594533,18.6597015 15.0258162,19 15.523918,19 L18.4639332,19 C18.9620349,19 19.3933181,18.6597015 19.5634017,18.1820896 L24.3986333,18.1820896 C24.7327259,18.1820896 25,17.919403 25,17.5910448 C25,17.2626866 24.7327259,17 24.3986333,17 L19.0470767,17 C18.7129841,17 18.4457099,17.2626866 18.4457099,17.5910448 L18.4457099,17.7164179 C18.4457099,17.7701493 18.4335611,17.8 18.4214123,17.8238806 L15.5785877,17.8238806 C15.5664389,17.8059701 15.5542901,17.7701493 15.5542901,17.7164179 L15.5542901,17.5910448 C15.5542901,17.2626866 15.2870159,17 14.9529233,17 L9.60136674,17 C9.26727411,17 9,17.2626866 9,17.5910448 C9,17.919403 9.2611997,18.1820896 9.59529233,18.1820896 Z" id="Shape"></path>
                        <path d="M5.03791676,4.72234548 L5.03791676,17.5014263 L3.60405317,17.5014263 C3.26846808,17.5014263 3,17.7664025 3,18.0976228 L3,19.4164818 C3,20.8377179 4.17149706,22 5.61756374,22 L28.3824363,22 C29.8224014,22 31,20.8437401 31,19.4164818 L31,18.0976228 C31,17.7664025 30.7315319,17.5014263 30.3959468,17.5014263 L28.9559817,17.5014263 L28.9559817,4.72234548 C28.9559817,4.70427892 28.9559817,4.68621236 28.9559817,4.66212361 C28.8583569,3.71664025 28.0773589,3 27.1438222,3 L6.7890608,3 C5.8189148,3 5.03791676,3.77083994 5.03791676,4.72234548 Z M27.7478754,4.75847861 L27.7478754,18.103645 C27.7478754,18.4348653 28.022445,18.6998415 28.3580301,18.6998415 L29.7918937,18.6998415 L29.7918937,19.422504 C29.7918937,20.1873217 29.1573328,20.8136292 28.3824363,20.8136292 L5.61146219,20.8136292 C4.8365657,20.8136292 4.20200479,20.1873217 4.20200479,19.422504 L4.20200479,18.6998415 L5.63586838,18.6998415 C5.97145348,18.6998415 6.23992155,18.4348653 6.23992155,18.103645 L6.23992155,4.72234548 C6.23992155,4.42725832 6.48398344,4.18637084 6.78295925,4.18637084 L27.1377206,4.18637084 C27.442798,4.19239303 27.7051645,4.43930269 27.7478754,4.75847861 Z" id="Shape"></path>
                        <path d="M31.3846978,29.4486824 L20.3527647,29.4486824 C20.1103729,28.3252427 19.2278183,27.4389736 18.1153022,27.2018031 L18.1153022,24.6178918 C18.1153022,24.2746186 17.8418345,24 17.5,24 C17.1581655,24 16.8846978,24.2746186 16.8846978,24.6178918 L16.8846978,27.2018031 C15.7659666,27.445215 14.8834119,28.3252427 14.6472353,29.4486824 L3.61530219,29.4486824 C3.27346764,29.4486824 3,29.723301 3,30.0665742 C3,30.4098474 3.27346764,30.684466 3.61530219,30.684466 L14.6472353,30.684466 C14.9331333,32.0076283 16.1015859,33 17.5,33 C18.8984141,33 20.0730819,32.0076283 20.3527647,30.684466 L31.3846978,30.684466 C31.7265324,30.684466 32,30.4098474 32,30.0665742 C32,29.723301 31.7265324,29.4486824 31.3846978,29.4486824 Z M17.5,31.757975 C16.567724,31.757975 15.8094728,30.9965326 15.8094728,30.0603329 C15.8094728,29.1241331 16.567724,28.3626907 17.5,28.3626907 C18.432276,28.3626907 19.1905272,29.1241331 19.1905272,30.0603329 C19.1905272,30.9965326 18.432276,31.757975 17.5,31.757975 Z" id="Shape"></path>
                    </g>
                </g>
            </g>
        </g>
    </g>
</svg>