<svg xmlns="http://www.w3.org/2000/svg" width="34" height="34" viewBox="0 0 34 34">
    <g fill="#FFF" fill-rule="nonzero">
        <path d="M18 7.391V2.602c0-.334-.222-.602-.5-.602s-.5.268-.5.602v4.796c0 .334.222.602.5.602.278-.006.5-.274.5-.609zM13.343 9a.662.662 0 0 0 .463-.192.651.651 0 0 0 0-.927L10.12 4.194a.651.651 0 0 0-.926 0 .651.651 0 0 0 0 .926l3.686 3.688a.662.662 0 0 0 .463.192zM27.398 13h-4.796c-.334 0-.602.222-.602.5s.268.5.602.5h4.796c.334 0 .602-.222.602-.5s-.268-.5-.602-.5zM6 13.5c0 .278.268.5.602.5h4.796c.334 0 .602-.222.602-.5s-.268-.5-.602-.5H6.602c-.328 0-.602.227-.602.5zM21.12 8.808l3.686-3.688a.651.651 0 0 0 0-.926.651.651 0 0 0-.926 0L20.194 7.88a.651.651 0 0 0 0 .927.662.662 0 0 0 .463.192.662.662 0 0 0 .463-.192z"/>
        <path d="M5 20.368V30.51c0 .638.55 1.153 1.22 1.153h3.644c.419 0 .781-.195 1.006-.497a3.33 3.33 0 0 0 2.213.834h9.766c2.188 0 3.582-1.088 3.832-2.98l1.313-7.901c.006-.03.006-.06.006-.09 0-1.685-1.45-3.057-3.232-3.057h-4.883v-3.317c0-1.437-.444-2.472-1.325-3.087-1.394-.964-3.301-.414-3.382-.39a.588.588 0 0 0-.432.555v3.773c0 2.94-3.613 3.945-3.763 3.986a.511.511 0 0 0-.206.1 1.251 1.251 0 0 0-.907-.384H6.22c-.676 0-1.22.52-1.22 1.16zm6.09.272c.074.005.15 0 .224-.018.194-.053 4.67-1.278 4.67-5.11v-3.306c.482-.07 1.276-.094 1.844.308.544.378.82 1.1.82 2.135v3.903c0 .325.275.585.618.585h5.502c1.088 0 1.97.822 1.994 1.846l-1.306 7.859v.018c-.17 1.3-1.044 1.957-2.607 1.957h-9.766c-1.1 0-1.994-.845-1.994-1.886V20.64zm-4.852-.26H9.85v10.112H6.238V20.379z"/>
    </g>
</svg>
