<?xml version="1.0" encoding="UTF-8"?>
<svg width="34px" height="34px" viewBox="0 0 34 34" version="1.1" xmlns="http://www.w3.org/2000/svg" xmlns:xlink="http://www.w3.org/1999/xlink">
    <!-- Generator: sketchtool 46.2 (44496) - http://www.bohemiancoding.com/sketch -->
    <title>AC5C05D3-4F0E-44E3-8277-D0445ED35630</title>
    <desc>Created with sketchtool.</desc>
    <defs></defs>
    <g id="⚙️-CMS-Admin" stroke="none" stroke-width="1" fill="none" fill-rule="evenodd">
        <g id="Fulfill-/4.0-Submit-for-Shipping" transform="translate(-513.000000, -204.000000)" fill-rule="nonzero" fill="#FFFFFF">
            <g id="BODY" transform="translate(249.000000, 105.000000)">
                <g id="Overview" transform="translate(40.000000, 56.000000)">
                    <g id="package" transform="translate(224.000000, 43.000000)">
                        <path d="M3.56643357,30 L29.4335664,30 C29.7482517,30 30,29.7496444 30,29.4366999 L30,9.61308677 C30,9.57894737 29.9942784,9.54480797 29.9885569,9.51066856 C29.9885569,9.49928876 29.9828353,9.48790896 29.9771138,9.47652916 C29.9713922,9.45376956 29.9656707,9.43669986 29.9599491,9.41394026 C29.9542276,9.40256046 29.948506,9.38549075 29.9427845,9.37411095 C29.9313414,9.35704125 29.9256198,9.33997155 29.9141767,9.32290185 C29.9084552,9.31152205 29.8970121,9.30014225 29.8912905,9.28876245 C29.885569,9.28307255 29.885569,9.27738265 29.8798474,9.27169275 L24.2898919,2.21621622 C24.1811825,2.07965861 24.020979,2 23.8436109,2 L9.15638907,2 C8.98474253,2 8.81881755,2.07965861 8.71010807,2.21621622 L3.12015257,9.27169275 C3.11443102,9.27738265 3.11443102,9.28307255 3.10870947,9.28876245 C3.10298792,9.30014225 3.09154482,9.31152205 3.08582327,9.32290185 C3.07438017,9.33997155 3.06293706,9.35704125 3.05721551,9.37411095 C3.05149396,9.38549075 3.04577241,9.39687055 3.04005086,9.41394026 C3.03432931,9.43669986 3.02860776,9.45376956 3.0228862,9.47652916 C3.01716465,9.48790896 3.01716465,9.49928876 3.0114431,9.51066856 C3.00572155,9.54480797 3,9.57894737 3,9.61308677 L3,29.4366999 C3,29.7496444 3.2574698,30 3.56643357,30 Z M17.0692943,3.12091038 L23.5689765,3.12091038 L28.26637,9.04978663 L17.0692943,9.04978663 L17.0692943,3.12091038 Z M9.43674507,3.12091038 L15.9364272,3.12091038 L15.9364272,9.04978663 L4.73363001,9.04978663 L9.43674507,3.12091038 Z M4.13286713,10.1763869 L28.8671329,10.1763869 L28.8671329,28.8733997 L4.13286713,28.8733997 L4.13286713,10.1763869 Z" id="Shape"></path>
                        <path d="M25.4353612,16 L8.56463878,16 C8.25095057,16 8,16.2222222 8,16.5 C8,16.7777778 8.25095057,17 8.56463878,17 L25.4353612,17 C25.7490494,17 26,16.7777778 26,16.5 C26,16.2222222 25.7490494,16 25.4353612,16 Z" id="Shape"></path>
                        <path d="M22.4153543,20 L11.5846457,20 C11.2598425,20 11,20.2222222 11,20.5 C11,20.7777778 11.2598425,21 11.5846457,21 L22.4153543,21 C22.7401575,21 23,20.7777778 23,20.5 C23,20.2222222 22.7401575,20 22.4153543,20 Z" id="Shape"></path>
                        <path d="M22.4153543,23 L11.5846457,23 C11.2598425,23 11,23.2222222 11,23.5 C11,23.7777778 11.2598425,24 11.5846457,24 L22.4153543,24 C22.7401575,24 23,23.7777778 23,23.5 C23,23.2272727 22.7401575,23 22.4153543,23 Z" id="Shape"></path>
                    </g>
                </g>
            </g>
        </g>
    </g>
</svg>