<svg xmlns="http://www.w3.org/2000/svg" width="34" height="34" viewBox="0 0 34 34">
    <g fill="#FFF" fill-rule="nonzero">
        <path d="M31 22.294V11.6a2.44 2.44 0 0 0-2.435-2.439h-2.932V3.568A1.57 1.57 0 0 0 24.066 2H9.934a1.57 1.57 0 0 0-1.567 1.568v5.593H5.435A2.44 2.44 0 0 0 3 11.6v10.694a2.44 2.44 0 0 0 2.435 2.438h2.932v4.7A1.57 1.57 0 0 0 9.934 31h14.132a1.57 1.57 0 0 0 1.567-1.568v-4.705h2.932A2.432 2.432 0 0 0 31 22.294zM9.537 3.568c0-.219.178-.396.397-.396h14.132c.22 0 .397.177.397.396v5.593H9.537V3.568zm14.931 25.864a.396.396 0 0 1-.396.396H9.934a.396.396 0 0 1-.397-.396V17.536h14.926v11.896h.005zm5.362-7.138c0 .698-.568 1.267-1.265 1.267h-2.932V16.95a.583.583 0 0 0-.585-.586H8.952a.583.583 0 0 0-.585.586v6.61H5.435a1.267 1.267 0 0 1-1.265-1.266V11.6c0-.699.568-1.267 1.265-1.267h23.13c.697 0 1.265.568 1.265 1.267v10.694z"/>
        <path d="M6.5 12a.519.519 0 0 0-.354.146A.519.519 0 0 0 6 12.5c0 .131.056.258.146.354.096.09.223.146.354.146a.519.519 0 0 0 .354-.146A.51.51 0 0 0 7 12.5a.519.519 0 0 0-.146-.354A.51.51 0 0 0 6.5 12zM12.557 24h7.886c.31 0 .557-.222.557-.5s-.247-.5-.557-.5h-7.886c-.31 0-.557.222-.557.5s.247.5.557.5zM12.557 27h7.886c.31 0 .557-.222.557-.5s-.247-.5-.557-.5h-7.886c-.31 0-.557.222-.557.5s.247.5.557.5zM12.557 21h7.886c.31 0 .557-.222.557-.5s-.247-.5-.557-.5h-7.886c-.31 0-.557.222-.557.5s.247.5.557.5z"/>
    </g>
</svg>
