<?xml version="1.0" encoding="UTF-8"?>
<svg width="34px" height="34px" viewBox="0 0 34 34" version="1.1" xmlns="http://www.w3.org/2000/svg" xmlns:xlink="http://www.w3.org/1999/xlink">
    <!-- Generator: sketchtool 46.2 (44496) - http://www.bohemiancoding.com/sketch -->
    <title>F87E0CBC-9C3A-4339-9D5E-9B276B3DC39A</title>
    <desc>Created with sketchtool.</desc>
    <defs></defs>
    <g id="⚙️-CMS-Admin" stroke="none" stroke-width="1" fill="none" fill-rule="evenodd">
        <g id="Fulfill-/4.0-Submit-for-Shipping" transform="translate(-1090.000000, -204.000000)" fill-rule="nonzero" fill="#FFFFFF">
            <g id="BODY" transform="translate(249.000000, 105.000000)">
                <g id="Overview" transform="translate(40.000000, 56.000000)">
                    <g id="shopping-bag" transform="translate(801.000000, 43.000000)">
                        <path d="M16.9971989,2 C14.0616246,2 11.67507,4.42143727 11.67507,7.3999188 L11.67507,7.53065367 L8.15686275,7.53065367 C7.87114846,7.53065367 7.6302521,7.75233455 7.6022409,8.04222493 L6,26.3848965 C6,26.4019488 6,26.4190012 6,26.4360536 C6,28.4027609 7.78711485,30 9.98879552,30 L24.0112045,30 C26.2128852,30 28,28.4027609 28,26.4360536 C28,26.4190012 28,26.4019488 28,26.3848965 L26.3921569,8.04222493 C26.3641457,7.75233455 26.1288515,7.53065367 25.837535,7.53065367 L22.3193277,7.53065367 L22.3193277,7.3999188 C22.3193277,4.42143727 19.9327731,2 16.9971989,2 Z M12.7843137,7.3999188 C12.7843137,5.0410069 14.6722689,3.12545676 16.9971989,3.12545676 C19.3221289,3.12545676 21.210084,5.0410069 21.210084,7.3999188 L21.210084,7.53065367 L12.7843137,7.53065367 L12.7843137,7.3999188 L12.7843137,7.3999188 Z M25.3277311,8.65611043 L26.8851541,26.4587901 C26.8683473,27.7945595 25.5854342,28.8745432 24.0056022,28.8745432 L9.98879552,28.8745432 C8.40896359,28.8745432 7.12605042,27.7945595 7.1092437,26.4587901 L8.66666667,8.65611043 L11.67507,8.65611043 L11.67507,11.2594397 C11.67507,11.5720666 11.9215686,11.8221681 12.2296919,11.8221681 C12.5378151,11.8221681 12.7843137,11.5720666 12.7843137,11.2594397 L12.7843137,8.65611043 L21.210084,8.65611043 L21.210084,11.2594397 C21.210084,11.5720666 21.4565826,11.8221681 21.7647059,11.8221681 C22.0728291,11.8221681 22.3193277,11.5720666 22.3193277,11.2594397 L22.3193277,8.65611043 L25.3277311,8.65611043 L25.3277311,8.65611043 Z" id="Shape"></path>
                        <path d="M20.0332024,16.1685559 L15.7661549,20.5864958 L13.9667976,18.7235091 C13.74402,18.4928536 13.3898608,18.4928536 13.1670832,18.7235091 C12.9443056,18.9541646 12.9443056,19.3208477 13.1670832,19.5515032 L15.3662978,21.8284869 C15.4748304,21.9408576 15.6233488,22 15.7661549,22 C15.9089611,22 16.0574795,21.9408576 16.1660121,21.8284869 L20.8329168,16.99655 C21.0556944,16.7658945 21.0556944,16.3992114 20.8329168,16.1685559 C20.6101392,15.9438147 20.25598,15.9438147 20.0332024,16.1685559 Z" id="Shape"></path>
                    </g>
                </g>
            </g>
        </g>
    </g>
</svg>