<?xml version="1.0" encoding="UTF-8"?>
<svg width="34px" height="34px" viewBox="0 0 34 34" version="1.1" xmlns="http://www.w3.org/2000/svg" xmlns:xlink="http://www.w3.org/1999/xlink">
    <!-- Generator: sketchtool 46.2 (44496) - http://www.bohemiancoding.com/sketch -->
    <title>B2B6A43E-679F-4FCC-81CD-6FA603500EF2</title>
    <desc>Created with sketchtool.</desc>
    <defs></defs>
    <g id="⚙️-CMS-Admin" stroke="none" stroke-width="1" fill="none" fill-rule="evenodd">
        <g id="Fulfill-/4.0-Submit-for-Shipping" transform="translate(-1371.000000, -205.000000)" fill-rule="nonzero" fill="#FFFFFF">
            <g id="BODY" transform="translate(249.000000, 105.000000)">
                <g id="Overview" transform="translate(40.000000, 56.000000)">
                    <g id="transfer-2" transform="translate(1082.000000, 44.000000)">
                        <path d="M9.57117497,13 C9.25385554,13 9,13.2548263 9,13.5733591 L9,15.6640927 C9,18.1833977 11.0423832,20.2277992 13.546322,20.2277992 L20.0484855,20.2277992 L19.2638411,21.0212355 C19.0388328,21.2471042 19.0388328,21.6061776 19.2638411,21.8320463 C19.3734606,21.9420849 19.5234661,22 19.6677022,22 C19.8119383,22 19.9619439,21.9420849 20.0715633,21.8320463 L21.8312438,20.0656371 C22.0562521,19.8397683 22.0562521,19.480695 21.8312438,19.2548263 L20.0715633,17.488417 C19.846555,17.2625483 19.4888494,17.2625483 19.2638411,17.488417 C19.0388328,17.7142857 19.0388328,18.0733591 19.2638411,18.2992278 L20.0484855,19.0868726 L13.546322,19.0868726 C11.6654832,19.0868726 10.1423499,17.5521236 10.1423499,15.6698842 L10.1423499,13.5791506 C10.1423499,13.2606178 9.88272495,13 9.57117497,13 Z" id="Shape"></path>
                        <path d="M16.9233153,8.51521004 C17.0326436,8.62530179 17.1822507,8.68324481 17.3261038,8.68324481 C17.4699568,8.68324481 17.619564,8.62530179 17.7288923,8.51521004 C17.9533031,8.28923225 17.9533031,7.92998551 17.7288923,7.70400773 L16.9463317,6.91598262 L23.4657519,6.91598262 C25.3415957,6.91598262 26.8606839,8.45147272 26.8606839,10.334621 L26.8606839,12.4263641 C26.8606839,12.7450507 27.1138652,13 27.4303419,13 C27.7468186,13 28,12.7450507 28,12.4263641 L28,10.334621 C28,7.81409947 25.9630408,5.76871077 23.4657519,5.76871077 L16.9463317,5.76871077 L17.7288923,4.98068566 C17.9533031,4.75470787 17.9533031,4.39546113 17.7288923,4.16948334 C17.5044816,3.94350555 17.147726,3.94350555 16.9233153,4.16948334 L15.1683081,5.93674553 C14.9438973,6.16272332 14.9438973,6.52197006 15.1683081,6.74794785 L16.9233153,8.51521004 Z" id="Shape"></path>
                        <path d="M22.5635246,23.8022923 C22.2085041,24.1002865 22,24.5415473 22,25.017192 L22,26.4326648 C22,26.747851 22.2479508,27 22.5578893,27 C22.8678279,27 23.1157787,26.747851 23.1157787,26.4326648 L23.1157787,25.017192 C23.1157787,24.8853868 23.1721311,24.765043 23.2679303,24.6790831 C24.4851434,23.6647564 25.7981557,22.9885387 26.0517418,22.8624642 C26.2715164,22.7535817 26.4180328,22.5186246 26.4180328,22.2722063 L26.4180328,20.277937 C26.4180328,20.0888252 26.3222336,19.9111748 26.170082,19.8080229 C26.0686475,19.739255 26.0066598,19.6246418 26.0066598,19.504298 L26.0066598,17.4355301 C26.0066598,16.7191977 26.5758197,16.1404011 27.2802254,16.1404011 L27.7197746,16.1404011 C28.4241803,16.1404011 28.9933402,16.7191977 28.9933402,17.4355301 L28.9933402,19.504298 C28.9933402,19.6246418 28.9313525,19.739255 28.829918,19.8080229 C28.6721311,19.9111748 28.5819672,20.0888252 28.5819672,20.277937 L28.5819672,22.2722063 C28.5819672,22.5243553 28.7228484,22.7535817 28.9482582,22.8624642 C29.2018443,22.9885387 30.5204918,23.6647564 31.7320697,24.6790831 C31.8278689,24.7593123 31.8842213,24.8853868 31.8842213,25.017192 L31.8842213,26.4326648 C31.8842213,26.747851 32.1321721,27 32.4421107,27 C32.7520492,27 33,26.747851 33,26.4326648 L33,25.017192 C33,24.5472779 32.7971311,24.1002865 32.4364754,23.8022923 C31.3714139,22.9083095 30.227459,22.260745 29.6977459,21.9799427 L29.6977459,20.5358166 C29.9569672,20.260745 30.1091189,19.8882521 30.1091189,19.4985673 L30.1091189,17.4297994 C30.1091189,16.0888252 29.0384221,15 27.7197746,15 L27.2802254,15 C25.9615779,15 24.8908811,16.0888252 24.8908811,17.4297994 L24.8908811,19.4985673 C24.8908811,19.8882521 25.0373975,20.260745 25.3022541,20.5358166 L25.3022541,21.9799427 C24.772541,22.260745 23.6285861,22.9083095 22.5635246,23.8022923 Z" id="Shape"></path>
                        <path d="M12.1091189,5.49283668 L12.1091189,3.42979943 C12.1091189,2.08882521 11.0384221,1 9.71977459,1 L9.28022541,1 C7.96157787,1 6.89088115,2.08882521 6.89088115,3.42979943 L6.89088115,5.49856734 C6.89088115,5.88825215 7.03739754,6.26074499 7.3022541,6.53581662 L7.3022541,7.97994269 C6.76690574,8.26074499 5.62858607,8.91404011 4.56352459,9.80229226 C4.2085041,10.1002865 4,10.5415473 4,11.017192 L4,12.4326648 C4,12.747851 4.24795082,13 4.55788934,13 C4.86782787,13 5.11577869,12.747851 5.11577869,12.4326648 L5.11577869,11.017192 C5.11577869,10.8853868 5.17213115,10.765043 5.26793033,10.6790831 C6.48514344,9.66475645 7.79815574,8.98853868 8.0517418,8.86246418 C8.27151639,8.75358166 8.41803279,8.51862464 8.41803279,8.2722063 L8.41803279,6.27793696 C8.41803279,6.08882521 8.32223361,5.91117479 8.17008197,5.80802292 C8.06864754,5.73925501 8.00665984,5.62464183 8.00665984,5.50429799 L8.00665984,3.42979943 C8.00665984,2.71346705 8.57581967,2.13467049 9.28022541,2.13467049 L9.71977459,2.13467049 C10.4241803,2.13467049 10.9933402,2.71346705 10.9933402,3.42979943 L10.9933402,5.49856734 C10.9933402,5.61891117 10.9313525,5.73352436 10.829918,5.80229226 C10.6721311,5.90544413 10.5819672,6.08309456 10.5819672,6.2722063 L10.5819672,8.26647564 C10.5819672,8.51862464 10.7228484,8.747851 10.9482582,8.85673352 C11.2018443,8.98280802 12.5204918,9.65902579 13.7320697,10.6733524 C13.8278689,10.7535817 13.8842213,10.8796562 13.8842213,11.0114613 L13.8842213,12.4269341 C13.8842213,12.7421203 14.1321721,12.9942693 14.4421107,12.9942693 C14.7520492,12.9942693 15,12.7421203 15,12.4269341 L15,11.0114613 C15,10.5415473 14.7971311,10.1002865 14.4364754,9.7965616 C13.3714139,8.9025788 12.227459,8.25501433 11.6977459,7.97421203 L11.6977459,6.53008596 C11.9626025,6.25501433 12.1091189,5.88825215 12.1091189,5.49283668 Z" id="Shape"></path>
                    </g>
                </g>
            </g>
        </g>
    </g>
</svg>