<svg xmlns="http://www.w3.org/2000/svg" width="34" height="34" viewBox="0 0 34 34">
    <g fill="#FFF" fill-rule="nonzero">
        <path d="M17 34a.684.684 0 0 0 .688-.686V8.344l5.136 5.124c.27.27.702.27.973 0a.681.681 0 0 0 0-.97L17.487 6.2A.696.696 0 0 0 17 6a.696.696 0 0 0-.486.201l-6.31 6.296a.681.681 0 0 0 0 .971c.27.27.701.27.972 0l5.136-5.124v24.97c0 .38.306.686.688.686z"/>
        <path d="M31.312 8.993c.382 0 .688-.323.688-.727V.726C32 .324 31.694 0 31.312 0H2.688C2.306 0 2 .323 2 .727v7.546c0 .404.306.727.688.727.382 0 .688-.323.688-.727v-6.82h27.248v6.82c0 .397.306.72.688.72z"/>
    </g>
</svg>
