<?xml version="1.0" encoding="UTF-8"?>
<svg width="34px" height="34px" viewBox="0 0 34 34" version="1.1" xmlns="http://www.w3.org/2000/svg" xmlns:xlink="http://www.w3.org/1999/xlink">
    <!-- Generator: sketchtool 46.2 (44496) - http://www.bohemiancoding.com/sketch -->
    <title>D40CA957-95D4-455E-80CB-F7A48F6C69C8</title>
    <desc>Created with sketchtool.</desc>
    <defs></defs>
    <g id="⚙️-CMS-Admin" stroke="none" stroke-width="1" fill="none" fill-rule="evenodd">
        <g id="Fulfill-/4.0-Submit-for-Shipping" transform="translate(-800.000000, -204.000000)" fill-rule="nonzero" fill="#FFFFFF">
            <g id="BODY" transform="translate(249.000000, 105.000000)">
                <g id="Overview" transform="translate(40.000000, 56.000000)">
                    <g id="user-7" transform="translate(511.000000, 43.000000)">
                        <path d="M13.5256975,19.1220732 L13.5256975,14.2145942 C13.5256975,14.0045465 13.4175233,13.8072289 13.2457171,13.6926574 C12.7812041,13.3807684 12.5012237,12.8651966 12.5012237,12.3050693 L12.5012237,7.21300296 C12.5012237,5.0297795 14.2765541,3.26028643 16.4527655,3.26028643 L17.5472345,3.26028643 C19.7298091,3.26028643 21.4987763,5.03614458 21.4987763,7.21300296 L21.4987763,12.3050693 C21.4987763,12.8651966 21.2187959,13.3807684 20.7542829,13.6926574 C20.5761136,13.8072289 20.4743025,14.0045465 20.4743025,14.2145942 L20.4743025,19.1220732 C20.4743025,19.4530575 20.658835,19.7458513 20.9515419,19.8922482 C21.5942242,20.2041373 24.9667156,21.9099795 28.071953,24.4623778 C28.4982868,24.8124574 28.7400881,25.3280291 28.7400881,25.8817913 L28.7400881,29.3698568 C28.7400881,29.7199363 29.0200685,30 29.3700441,30 C29.7200196,30 30,29.7199363 30,29.3698568 L30,25.8817913 C30,24.9524892 29.5863926,24.0804728 28.8737151,23.4885201 C25.9275575,21.0697886 22.7586882,19.3894067 21.7342144,18.873835 L21.7342144,14.5264833 C22.3832599,13.9727211 22.7586882,13.1643555 22.7586882,12.3050693 L22.7586882,7.21300296 C22.7586882,4.33598545 20.4170338,2 17.5472345,2 L16.4527655,2 C13.576603,2 11.2413118,4.34235053 11.2413118,7.21300296 L11.2413118,12.3050693 C11.2413118,13.1643555 11.6167401,13.9727211 12.2657856,14.5264833 L12.2657856,18.873835 C11.2413118,19.3894067 8.07244249,21.0697886 5.12628488,23.4885201 C4.40724425,24.0741078 4,24.9461241 4,25.8817913 L4,29.3698568 C4,29.7199363 4.27998042,30 4.62995595,30 C4.97993147,30 5.25991189,29.7199363 5.25991189,29.3698568 L5.25991189,25.8817913 C5.25991189,25.3280291 5.50171317,24.8124574 5.92804699,24.4623778 C9.03328439,21.9099795 12.4057758,20.2105024 13.0484581,19.8922482 C13.341165,19.7458513 13.5256975,19.4530575 13.5256975,19.1220732 Z" id="Shape"></path>
                        <path d="M20.8659966,26.1802982 L15.2445561,31.4880253 L13.1340034,29.4952553 C12.8726968,29.2485314 12.4572864,29.2485314 12.1959799,29.4952553 C11.9346734,29.7419792 11.9346734,30.134207 12.1959799,30.3809309 L14.7755444,32.8165386 C14.9028476,32.9367375 15.0770519,33 15.2445561,33 C15.4120603,33 15.5862647,32.9367375 15.7135678,32.8165386 L21.8040201,27.0659738 C22.0653266,26.8192499 22.0653266,26.4270221 21.8040201,26.1802982 C21.5427136,25.9399006 21.1273032,25.9399006 20.8659966,26.1802982 Z" id="Shape"></path>
                    </g>
                </g>
            </g>
        </g>
    </g>
</svg>